<svg xmlns="http://www.w3.org/2000/svg" viewBox="0 0 277.16 64.34"><defs><style>.a{font-size:37.67px;font-family:PlayfairDisplay-Regular, Playfair Display;letter-spacing:0.1em;}.a,.b{fill:#606060;}</style></defs><title>showroom-logo</title><text class="a" transform="translate(0 55.25) scale(1.09 1)">SHOWROOM</text><path class="b" d="M159.78,131.81a2.71,2.71,0,0,1-2.62,2c-1.11,0-1.51-.48-1.51-1.24a4.74,4.74,0,0,1,.34-1.54l2.06-5.66a2.89,2.89,0,0,0,.22-1c0-.38-.16-.68-.7-.68-1.69,0-3.91,3.29-5.55,8.08l-.53,1.74h-1.88l4.1-13.35a8.16,8.16,0,0,1-2.93.41,22.27,22.27,0,0,1-3.31-.28l-3.18,10.92a3.43,3.43,0,0,0-.19,1c0,.69.5.87,1.82.9l-.09.4c-.76,0-2-.06-3.23-.06s-2.46,0-3.16.06l.1-.4c1.82-.06,2.27-.47,2.74-1.9l3.26-11.2a22.17,22.17,0,0,0-2.78-.23,5.85,5.85,0,0,0-2.43.34,2,2,0,0,1,.39,1.14,1.07,1.07,0,0,1-1.08,1.15.89.89,0,0,1-.95-1,1.65,1.65,0,0,1,1.14-1.54,8,8,0,0,1,2.91-.46c3,0,5.25.76,8.19.76a6.85,6.85,0,0,0,2.92-.48l.5-1.64a8.13,8.13,0,0,0,2-.28l-3.18,10.35c1.72-3.7,3.24-5.07,5.14-5.07,1.29,0,1.74.61,1.74,1.48a4.73,4.73,0,0,1-.31,1.51l-2.09,5.77a2.11,2.11,0,0,0-.18.75c0,.27.12.48.52.48s1.06-.43,1.66-2l.29-.73h.41Zm4.13-2.61a8.26,8.26,0,0,0-.24,1.91c0,1.34.58,1.9,1.49,1.9a4.19,4.19,0,0,0,3.34-2l.35.16a5.6,5.6,0,0,1-4.35,2.66,2.57,2.57,0,0,1-2.86-2.8c0-2.86,3-7.93,7.13-7.93.89,0,1.61.44,1.61,1.31C170.38,126.84,166.41,128.43,163.91,129.2Zm.1-.38a11.17,11.17,0,0,0,3-1.27,3.85,3.85,0,0,0,1.68-3.16c0-.75-.12-.89-.34-.89C166.88,123.5,164.81,126,164,128.82Z" transform="translate(-14.24 -117.84)"/></svg>